**ABCDEFGHIJKLMNOPQRSTUVWXYZabcdefghijklmnopqrstuvwxyz**************************
**PARASOLID !"#$%&'()*+,-./:;<=>?@[\]^_`{|}~0123456789**************************
**PART1;
FORMAT=text;
GUISE=transmit;
KEY=unicode filename;
FILE=unicode filename;
DATE=unknown;
**PART2;
SCH=SCH_3200152_32001;
USFLD_SIZE=0;
**PART3;
**END_OF_HEADER*****************************************************************
T51 : TRANSMIT FILE created by modeller version 320015217 SCH_1300000_130060 12
 1 140 2 3 0 0 0 0 1e3 1e-8 0 0 0 1 0 1 1 4 5 6 7 8 9 10 81 1 2 140 11 1 0 0 0 0
 12 70 3 0 1 0 0 4 1 20 4 13 13 1 T13 4 82 0 1 0 14 0 0 15 0 50 5 96 0 16 17 0 0
 +.0003749998251562095 .00064951875 .002 .5 .866025403784439 530270106023007e-31
 .866025403784439 -.5 -3061515884555945e-32 30 6 139 0 18 19 0 0 +53026985878451
2e-34 -866025e-9 .002 3749151804555345e-48 612303176911189e-31 -1 29 7 115 0 20
 21 0 .000749999650312419 -.0004330125 .002 19 8 1 0 1 15 0 22 V16 9 75 0 ?23 0
 24 25 0 0 1 18 10 76 0 23 0 26 27 ?1 17 23 0 28 23 23 10 29 9 0 29 +18 26 71 0
 30 10 31 32 ?1 29 27 109 0 10 33 34 -.0019 2387982389953635e-34 0 29 33 108 0 3
5 36 27 -579953165840644e-34 866025e-9 .001 29 34 110 0 37 27 38 .00074999965031
2419 -.0004330125 .001 18 37 13 0 39 40 41 34 ?1 29 38 111 0 42 34 43 -.00074999
9650312419 .0004330125 .002 18 42 39 0 44 45 46 38 ?1 29 43 112 0 47 38 48 -.000
749999650312418 -.0004330125 .001 18 47 9 0 49 41 35 43 ?1 29 48 113 0 40 43 21
 .000749999650312419 .0004330125 .001 18 40 15 0 50 51 37 48 ?1 29 21 114 0 52 4
8 7 -7835e-7 1395040943115606e-33 -.02 18 52 59 0 53 31 54 21 ?1 17 53 0 55 53 5
3 52 56 57 0 56 +18 31 67 0 58 26 52 59 ?1 18 54 55 0 60 52 61 62 ?1 17 60 0 63
 60 60 54 64 65 0 64 +18 61 52 0 66 54 45 67 ?1 29 62 104 0 54 67 32 .001 183690
9530733565e-34 0 29 67 103 0 61 68 62 -.001 1395040943115606e-33 -.0197835 29 32
 105 0 26 62 69 -.0019 1279713639744384e-34 .00181 29 69 106 0 70 32 36 -.000749
999650312419 .0004330125 .001 18 70 6 0 71 35 72 69 ?1 29 36 107 0 41 69 33 5799
53165840644e-34 -866025e-9 .001 18 41 11 0 73 37 47 36 ?1 17 73 0 74 75 76 41 77
 18 0 78 +15 74 47 0 75 79 0 17 75 0 74 80 73 47 81 82 0 83 +17 76 0 74 73 80 51
 84 85 0 86 -17 77 0 87 88 78 51 73 18 0 0 -16 18 21 0 ?73 89 90 6 0 0 1 17 78 0
 87 77 39 41 91 92 0 81 +15 87 20 0 78 93 0 17 39 0 87 78 88 37 94 95 0 96 +17 9
1 0 97 98 81 37 78 92 0 0 -16 92 12 0 ?78 99 82 100 0 0 1 17 81 0 97 91 83 41 75
 82 0 0 -15 97 4 0 101 102 0 17 83 0 97 81 101 47 103 104 0 0 -16 82 10 0 ?75 92
 104 105 0 0 1 16 104 8 0 ?103 82 106 107 0 0 1 134 105 117 0 82 108 109 0 +110
 111 30 108 116 0 112 0 105 0 +.000749999650312419 958843437440039e-35 .002 -612
303176911189e-31 -1 -612303176911189e-31 30 109 118 0 95 105 113 0 +.00074999965
0312419 -.0004330125 .002 3749151804555345e-48 612303176911189e-31 -1 136 110 2
 3 4 2 5 FFT1 114 115 116 135 111 2 0 45 12 114 4465733752028695e-34 -866025e-9
 .001 1 -.0004330125 -.00074999965031242 .001010363038379252 1.154700538379254 -
.000749999650312419 -.0004330125 .001 1 127 2 115 3 3 128 2 116 0 .8763266949708
32 16 95 25 0 ?39 112 89 109 0 0 1 30 113 119 0 117 109 118 0 +-.000749999650312
419 .0004330125 .002 3749151804555345e-48 612303176911189e-31 -1 16 117 40 0 ?71
 119 120 113 0 0 1 31 118 120 0 57 113 121 0 +824813397002176e-49 13470669892046
14e-33 -.02 3749151804555345e-48 612303176911189e-31 -1 -1 612303176911189e-31 4
26414280486949e-63 7835e-7 16 57 58 0 ?53 122 65 118 0 0 1 31 121 121 0 24 118 1
23 0 +712338842865515e-51 1163376036131258e-35 .00181 3749151804555345e-48 61230
3176911189e-31 -1 -1 612303176911189e-31 -703359134234788e-63 .0019 16 24 70 0 ?
30 9 122 121 0 0 1 30 123 122 0 89 121 124 0 +543748251562092e-19 -.000834631680
058924 .002 -.866025403784439 -.5 -587286484125706e-31 16 89 23 0 ?86 95 18 123
 0 0 1 30 124 123 0 125 123 107 0 +-.000749999650312418 -.0004330125 .002 374915
1804555345e-48 612303176911189e-31 -1 16 125 45 0 ?49 85 119 124 0 0 1 134 107 1
24 0 104 124 126 0 +127 128 31 126 125 0 129 107 130 0 +816696483345313e-49 1333
810625424488e-33 -.0197835 3749151804555345e-48 612303176911189e-31 -1 -1 612303
176911189e-31 0 .001 136 127 2 3 4 2 5 FFT1 131 132 133 135 128 2 0 45 12 131 -.
000749999650312418 -.0004330125 .001 1 -866025e-9 1758614949772425e-34 .00101036
3038379252 1.154700538379254 -.000749999650312419 .0004330125 .001 1 127 2 132 3
 3 128 2 133 0 .876326694970832 16 129 51 0 ?66 65 85 126 0 0 1 30 130 126 0 134
 126 135 0 +543748251562094e-19 .000834631680058924 .002 .866025403784439 -.5 -2
50166927854827e-32 16 134 33 0 ?136 137 138 130 0 0 1 31 135 127 0 65 130 25 0 +
749830360911069e-50 1224606353822376e-34 0 -3749151804555345e-48 -61230317691118
9e-31 1 -1 612303176911189e-31 0 .001 16 65 54 0 ?60 57 129 135 0 0 1 31 25 128
 0 9 135 139 0 +749830360911069e-50 1224606353822376e-34 0 3749151804555345e-48
 612303176911189e-31 -1 -1 612303176911189e-31 -703359134234788e-63 .0019 134 13
9 129 0 106 25 140 0 +141 142 16 106 5 0 ?143 104 0 139 0 0 1 31 140 130 0 122 1
39 144 0 +0 0 .002 3749151804555345e-48 612303176911189e-31 -1 -1 61230317691118
9e-31 0 .00171 136 141 2 3 4 2 5 FFT1 145 146 147 135 142 2 0 45 12 145 -.000749
999650312419 .0004330125 .001 1 -.0004330125 .000749999650312419 .00101036303837
9252 1.154700538379252 164049288340967e-33 866025e-9 .001 1 127 2 146 3 3 128 2
 147 0 .876326694970832 16 122 66 0 ?58 24 57 140 0 0 1 134 144 131 0 99 140 148
 0 +149 150 16 99 14 0 ?96 90 92 144 0 0 1 134 148 132 0 90 144 100 0 +151 152 1
36 149 2 3 4 2 5 FFT1 153 154 155 135 150 2 0 45 12 153 .000749999650312419 .000
4330125 .001 1 866025e-9 265135259043581e-34 .001010363038379246 1.1547005383792
44 .000749999650312419 -.0004330125 .001 1 127 2 154 3 3 128 2 155 0 .8763266949
70832 16 90 16 0 ?156 18 99 148 0 0 1 134 100 133 0 92 148 157 0 +158 159 136 15
1 2 3 4 2 5 FFT1 160 161 162 135 152 2 0 45 12 160 2195604395722245e-34 866025e-
9 .001 1 .0004330125 .000749999650312418 .00101036303837925 1.15470053837925 .00
0749999650312419 .0004330125 .001 1 127 2 161 3 3 128 2 162 0 .876326694970831 3
0 157 134 0 138 100 163 0 +.000749999650312419 .0004330125 .002 3749151804555345
e-48 612303176911189e-31 -1 136 158 2 3 4 2 5 FFT1 164 165 166 135 159 2 0 45 12
 164 .000749999650312419 -.0004330125 .001 1 .0004330125 -.000749999650312414 .0
01010363038379246 1.154700538379244 -108538137109709e-33 -866025e-9 .001 1 127 2
 165 3 3 128 2 166 0 .876326694970832 16 138 30 0 ?50 134 112 157 0 0 1 30 163 1
35 0 137 157 167 0 +530269858784512e-34 866025e-9 .002 3749151804555345e-48 6123
03176911189e-31 -1 16 137 35 0 ?168 120 134 163 0 0 1 30 167 136 0 119 163 169 0
 +-.000749999650312419 -958843437440039e-35 .002 -66967254506584e-30 1 612303176
911189e-31 16 119 43 0 ?44 125 117 167 0 0 1 30 169 137 0 85 167 19 0 +-.0006956
24825156209 -.000464405819941077 .002 -.866025403784439 .5 250166927854824e-32 1
6 85 48 0 ?84 129 125 169 0 0 1 30 19 138 0 120 169 6 0 +-.000695624825156209 .0
00464405819941076 .002 .866025403784439 .5 587286484125706e-31 16 120 38 0 ?170
 117 137 19 0 0 1 17 170 0 171 136 44 46 172 120 0 173 +15 171 64 0 86 174 0 17
 136 0 171 175 170 176 177 134 0 178 +17 44 0 171 170 84 42 179 119 0 180 +18 46
 34 0 170 42 176 181 ?1 17 172 0 182 71 173 42 170 120 0 0 -17 173 0 182 172 143
 46 168 137 0 177 -15 182 37 0 143 183 0 17 143 0 182 173 71 35 101 106 0 0 +17
 168 0 184 156 177 35 173 137 0 185 +17 177 0 184 168 178 46 136 134 0 0 -15 184
 32 0 156 16 0 17 178 0 184 177 156 176 50 138 0 186 -17 156 0 184 178 168 40 18
5 90 0 98 +18 176 29 0 136 46 20 187 ?1 17 50 0 188 96 186 40 178 138 0 156 +17
 186 0 188 50 94 176 175 112 0 0 -15 188 27 0 96 189 0 17 94 0 188 186 96 20 39
 95 0 88 -17 175 0 171 86 136 20 186 112 0 94 +16 112 28 0 ?175 138 95 108 0 0 1
 17 86 0 171 84 175 51 88 89 0 77 +18 20 24 0 175 176 51 7 ?1 18 51 22 0 76 20 4
0 190 ?1 29 190 100 0 51 181 191 530269858784512e-34 -866025e-9 .002 29 181 99 0
 46 187 190 530269858784512e-34 866025e-9 .002 29 191 101 0 45 190 68 -.00074999
9650312418 -.0004330125 .002 18 45 44 0 84 61 42 191 ?1 29 68 102 0 72 191 67 56
237268328118e-49 918454622623572e-34 .000500000233125054 18 72 18 0 192 70 0 68
 ?1 17 192 0 193 192 192 72 0 0 0 0 ?15 193 17 0 192 102 97 14 102 3 0 ?0 93 193
 4 194 -0 0 0 93 22 14 93 19 0 ?102 189 87 4 195 -0 0 102 189 22 52 194 89 0 102
 196 197 0 +468643931868357e-50 76537889976738e-33 .000750000116562527 -37491518
04555345e-48 -612303176911189e-31 1 .0004330125 .866025403784439 .5 -1 612303176
911189e-31 0 13 22 2 0 0 0 0 0 0 8 14 14 14 78 0 ?198 0 28 4 17 +0 0 198 0 22 14
 198 73 0 ?199 14 200 4 201 +0 0 199 14 22 15 28 80 0 23 14 63 50 17 95 0 14 202
 5 0 +-95e-5 1806294371888005e-34 0 3749151804555345e-48 612303176911189e-31 -1
 -1 612303176911189e-31 0 54 202 94 0 199 203 17 0 +712338842865515e-51 11633760
36131258e-35 .00181 3749151804555345e-48 612303176911189e-31 -1 .00171 19e-5 -61
2303176911189e-31 -1 -612303176911189e-31 14 199 68 0 ?174 198 204 4 202 +0 0 17
4 198 22 50 203 93 0 205 206 202 0 +-.000749999650312418 -120610736836916e-33 .0
02 -1 -66967254506584e-30 -784957807289549e-47 -66967254506584e-30 1 61230317691
1189e-31 14 205 41 0 ?183 79 207 4 203 -0 0 183 79 22 50 206 92 0 183 195 203 0
 +-.000374999825156209 .00064951875 .002 -.5 .866025403784439 530270106023007e-3
1 .866025403784439 .5 3061515884555945e-32 14 183 36 0 ?16 205 182 4 206 -0 0 16
 205 22 50 195 91 0 93 197 206 0 +.000374999825156209 -.00064951875 .002 .5 -.86
6025403784439 -530270106023007e-31 -.866025403784439 -.5 -3061515884555945e-32 5
0 197 90 0 174 194 195 0 +-855e-6 523519216259066e-34 .002 -324626615387473e-31
 -612303176911189e-31 1 1 -612303176911189e-31 3246266153874725e-32 14 174 63 0
 ?208 199 209 4 197 +0 0 208 199 22 14 208 61 0 ?210 174 55 4 211 +0 0 210 174 2
2 15 209 65 0 212 174 171 17 212 0 209 212 212 31 58 122 0 0 -17 58 0 204 58 58
 31 212 122 0 212 +15 204 72 0 58 199 213 15 213 69 0 214 199 0 17 214 0 213 214
 214 26 30 24 0 0 -17 30 0 200 30 30 26 214 24 0 214 +15 200 77 0 30 198 215 15
 215 74 0 29 198 0 17 29 0 215 29 29 10 23 9 0 0 -14 210 56 0 ?216 208 217 4 218
 +0 0 216 208 22 15 55 62 0 53 208 0 50 211 85 0 208 201 219 0 +-39175e-8 137105
396616011e-32 -.02 3749151804555345e-48 612303176911189e-31 -1 -1 61230317691118
9e-31 0 51 201 84 0 198 218 211 0 +41053212259881e-49 670471978717752e-34 905e-6
 -3749151804555345e-48 -612303176911189e-31 1 .0019 -1 612303176911189e-31 -7033
59134234788e-63 50 219 86 0 79 211 220 0 +-.000374999825156209 -.00064951875 .00
2 -.5 -.866025403784439 -530270106023007e-31 -.866025403784439 .5 30615158845559
4e-31 14 79 46 0 ?205 216 74 4 219 -0 0 205 216 22 50 220 87 0 189 219 196 0 +.0
00749999650312419 650995856056582e-34 .002 1 -612303176911189e-31 65253044679985
3e-63 -612303176911189e-31 -1 -612303176911189e-31 14 189 26 0 ?93 16 188 4 220
 -0 0 93 16 22 51 196 88 0 216 220 194 0 +4270940006954335e-50 697520471557803e-
33 -.00939175 -3749151804555345e-48 -612303176911189e-31 1 .001 -1 6123031769111
89e-31 0 14 216 49 0 ?79 210 221 4 196 +0 0 79 210 22 15 221 53 0 64 216 222 17
 64 0 221 64 64 54 60 65 0 0 -15 222 50 0 223 216 0 17 223 0 222 223 223 61 66 1
29 0 0 -17 66 0 217 66 66 61 223 129 0 223 +15 217 60 0 66 210 224 15 224 57 0 5
6 210 0 17 56 0 224 56 56 52 53 57 0 0 -14 16 31 0 ?189 183 184 4 5 -0 0 189 183
 22 52 218 83 0 210 0 201 0 +820754940173744e-49 134043880731455e-32 -.01989175
 -3749151804555345e-48 -612303176911189e-31 1 89175e-8 .707106781186548 .7071067
81186547 -1 612303176911189e-31 -749303254861843e-63 15 207 42 0 103 205 0 17 10
3 0 207 180 49 70 83 104 0 101 +17 180 0 207 179 103 42 71 117 0 172 -17 49 0 20
7 103 179 47 80 125 0 75 +17 101 0 97 83 185 70 143 106 0 0 -17 185 0 97 101 98
 35 156 90 0 143 -17 98 0 97 185 91 40 96 99 0 0 -18 35 7 0 168 47 70 33 ?1 17 9
6 0 188 94 50 37 98 99 0 91 +17 179 0 207 49 180 45 44 119 0 0 -17 80 0 74 76 75
 45 49 125 0 179 -17 71 0 182 143 172 70 180 117 0 103 +15 63 79 0 60 14 0 17 84
 0 171 44 86 45 76 85 0 80 +29 187 98 0 176 59 181 .000749999650312419 .00043301
25 .002 29 59 97 0 31 0 187 -.00171 1047038432518132e-34 .002 17 88 0 87 39 77 2
0 86 89 0 0 -19 15 81 0 1 0 8 4 S74 20 13 1 0 2 0 0 0 0 0 0 0 0 0 0 0 0 0 0 0 0
 0 0 0 80 1 11 225 226 8017 0 0 0 0 0 0 0 0 0 TTTTTTTTTTTTTF3 84 21 12 din_912-m
2x0_4-20-8_879 13 226 SDL/TYSA_NAME1 0 
