**ABCDEFGHIJKLMNOPQRSTUVWXYZabcdefghijklmnopqrstuvwxyz**************************
**PARASOLID !"#$%&'()*+,-./:;<=>?@[\]^_`{|}~0123456789**************************
**PART1;
FORMAT=text;
GUISE=transmit;
KEY=unicode filename;
FILE=unicode filename;
DATE=unknown;
**PART2;
SCH=SCH_3200152_32001;
USFLD_SIZE=0;
**PART3;
**END_OF_HEADER*****************************************************************
T51 : TRANSMIT FILE created by modeller version 320015217 SCH_1300000_130060 12
 1 227 2 3 0 0 0 0 1e3 1e-8 0 0 0 1 0 1 1 4 5 6 7 8 9 10 81 1 2 227 11 1 0 0 0 0
 12 70 3 0 1 0 0 4 1 20 4 13 13 1 T13 4 129 0 1 0 14 0 0 15 0 50 5 152 0 16 17 0
 0 +-.00173205080756888 -.001 -.001 -.866025403784439 -.5 306151588455594e-31 .5
 -.866025403784439 530270106023007e-31 31 6 226 0 18 19 0 0 +0 1325636378012722e
-35 2165e-7 0 612303176911189e-31 1 1 0 0 7835e-7 29 7 180 0 20 21 0 .001 979685
083057902e-34 .0016 19 8 1 0 1 15 0 22 V16 9 125 0 ?23 0 24 25 0 0 1 18 10 105 0
 26 0 27 28 ?1 17 26 0 29 26 26 10 30 31 0 30 +18 27 100 0 32 10 33 34 ?1 29 28
 163 0 10 35 36 .001 0 0 29 35 162 0 37 38 28 -.002309401076758505 5112515205629
57e-33 .00142136720504592 29 36 164 0 39 28 40 .00115470053837925 -.002 .0001786
327949540815 18 39 6 0 41 42 0 36 ?1 29 40 165 0 43 36 44 -.002309401076758505 4
351584978273485e-34 .0001786327949540815 18 43 21 0 45 46 47 40 ?1 29 44 166 0 4
8 40 34 .002309401076758505 -543792663092883e-34 .00142136720504592 18 48 77 0 4
9 50 51 44 ?1 29 34 167 0 27 44 52 7835e-7 1325636378012722e-35 2165e-7 29 52 16
8 0 53 34 54 .001732050807568875 -.001 612303176911189e-34 18 53 9 0 55 56 42 52
 ?1 29 54 169 0 57 52 58 .001154700538379252 .002 .0001786327949540815 18 57 35
 0 59 60 61 54 ?1 29 58 170 0 62 54 63 -.001732050807568875 .001 .0016 18 62 49
 0 64 65 66 58 ?1 29 63 171 0 67 58 68 -.001154700538379252 -.002 .0014213672050
4592 18 67 63 0 69 70 71 63 ?1 29 68 172 0 72 63 73 .00115470053837925 -.002 .00
142136720504592 18 72 70 0 74 51 70 68 ?1 29 73 173 0 51 68 75 .0017320508075688
75 -.001 .0016 18 51 72 0 76 48 72 73 ?1 29 75 174 0 50 73 77 .00173205080756887
5 .001 .0016 18 50 79 0 78 79 48 75 ?1 29 77 175 0 79 75 80 .001154700538379252
 .002 .001421367205045918 18 79 84 0 23 20 50 77 ?1 29 80 176 0 47 77 81 -.00173
205080756888 -.001 612303176911188e-34 18 47 15 0 82 43 56 80 ?1 29 81 177 0 71
 80 83 -.00173205080756888 -.001 .0016 18 71 57 0 84 67 37 81 ?1 29 83 178 0 46
 81 21 -.001732050807568875 .001 -612303176911189e-34 18 46 22 0 85 86 43 83 ?1
 29 21 179 0 61 83 7 0 .002 -1224606353822376e-34 18 61 30 0 87 57 86 21 ?1 17 8
7 0 88 89 90 61 91 92 0 93 +18 86 28 0 94 61 46 95 ?1 17 94 0 96 97 98 86 99 24
 0 100 -29 95 153 0 86 0 101 -.00115470053837925 .002 .000178632794954081 29 101
 154 0 33 95 102 7835e-7 84712144525663e-33 .0013835 18 33 95 0 103 27 20 101 ?1
 29 102 155 0 60 101 104 .001732050807568875 .001 -612303176911188e-34 18 60 37
 0 105 106 57 102 ?1 29 104 156 0 70 102 107 -3845925372767125e-34 -.002 .0016 1
8 70 64 0 108 72 67 104 ?1 29 107 157 0 66 104 109 -.00115470053837925 .002 .001
42136720504592 18 66 48 0 99 62 106 107 ?1 29 109 158 0 56 107 110 -.00115470053
8379252 -.002 .000178632794954082 18 56 14 0 111 47 53 109 ?1 29 110 159 0 42 10
9 112 -3845925372767125e-34 -.002 1224606353822376e-34 18 42 7 0 113 53 39 110 ?
1 29 112 160 0 106 110 38 .002309401076758505 -1304722890448966e-34 .00017863279
49540815 18 106 42 0 114 66 60 112 ?1 29 38 161 0 65 112 35 0 .002 .0016 18 65 5
1 0 115 37 62 38 ?1 17 115 0 116 117 118 65 78 119 0 120 +18 37 56 0 121 71 65 3
5 ?1 17 121 0 96 64 122 37 45 123 0 124 +15 96 121 0 122 125 0 17 64 0 96 98 121
 62 124 126 0 127 -17 122 0 96 121 97 43 128 129 0 0 -17 45 0 130 82 131 43 121
 123 0 132 -16 123 113 0 ?121 133 134 135 0 0 1 17 124 0 136 137 127 37 64 126 0
 131 +15 136 54 0 137 138 0 17 137 0 136 127 124 71 131 139 0 0 +17 127 0 136 12
4 137 62 140 141 0 117 -16 126 59 0 ?124 142 141 143 0 0 1 17 131 0 130 45 84 37
 137 139 0 0 -15 130 111 0 82 16 0 17 84 0 130 131 69 71 144 145 0 146 -16 139 5
5 0 ?137 141 147 148 0 0 1 16 141 58 0 ?140 126 139 149 0 0 1 16 147 52 0 ?150 1
39 151 152 0 0 1 134 148 197 0 139 153 154 0 +155 156 30 153 196 0 157 25 148 0
 +.002309401076758505 -2026403495211065e-34 -.001 0 612303176911189e-31 1 134 15
4 198 0 158 148 159 0 +160 161 136 155 2 5 4 3 5 FFT1 162 163 164 135 156 2 0 45
 20 162 -.002309999767253035 1036962354537612e-21 .001421021416551216 1 -.002076
30367777804 -.000555844436551693 .00166084315936215 1.038026974601344 -.00173205
080756888 -.001 .0016 1 -.00151952724149502 -.00152020951265098 .001660843159362
135 1.038026974601336 -.001154101847884722 -.002001036962354535 .001421021416551
216 1 127 3 163 3 2 3 128 3 164 0 1.172663279502838 2.345326559005675 16 158 13
 0 ?165 166 167 154 0 0 1 134 159 199 0 168 154 169 0 +170 171 136 160 2 5 4 3 5
 FFT1 172 173 174 135 161 2 0 45 20 172 -.00115410184788472 -.002001036962354535
 .000178978583448784 1 -.001519527241495045 -.001520209512651005 304842333977479
e-35 1.03802697460135 -.00173205080756888 -.001 334747420754899e-34 1 -.00207630
367777805 -.000555844436551694 -33491334620779e-33 1.038026974601348 -.002309999
767253035 103696235453813e-20 .000178978583448784 1 127 3 173 3 2 3 128 3 174 0
 1.17266327950284 2.34532655900568 16 168 27 0 ?175 176 177 159 0 0 1 134 169 20
0 0 178 159 179 0 +180 181 136 170 2 5 4 3 5 FFT1 182 183 184 135 171 2 0 45 20
 182 -.002309999767253035 -103696235453811e-20 .000178978583448784 1 -.002076303
677778035 .000555844436551688 1694434116169075e-34 1.03802697460134 -.0017320508
07568875 .001 815862134795339e-35 1 -.00151952724149502 .00152020951265099 14820
95166294268e-34 1.038026974601336 -.001154101847884718 .00200103696235454 .00017
8978583448784 1 127 3 183 3 2 3 128 3 184 0 1.17266327950284 2.34532655900568 16
 178 43 0 ?185 186 187 169 0 0 1 134 179 201 0 188 169 189 0 +190 191 136 180 2
 5 4 3 5 FFT1 192 193 194 135 181 2 0 45 20 192 .002309999767253035 103696235453
825e-20 .000178978583448784 1 .00207630367777804 -.000555844436551687 4463924868
291325e-34 1.038026974601342 .001732050807568875 -.001 186130407961449e-33 1 .00
151952724149502 -.00152020951265099 462224312531995e-33 1.038026974601336 .00115
410184788472 -.00200103696235454 .000178978583448784 1 127 3 193 3 2 3 128 3 194
 0 1.17266327950284 2.34532655900568 16 188 36 0 ?90 92 195 179 0 0 1 31 189 202
 0 186 179 196 0 +0 0 0 0 612303176911189e-31 1 1 0 0 .002 136 190 2 5 4 3 5 FFT
1 197 198 199 135 191 2 0 45 20 197 .00115410184788472 .00200103696235454 .00017
8978583448784 1 .001519527241495025 .00152020951265099 1599140000794255e-34 1.03
802697460134 .001732050807568875 .001 -3347474207548995e-35 1 .00207630367777802
 .000555844436551685 -943576384484274e-34 1.038026974601332 .002309999767253035
 -1036962354538704e-21 .000178978583448784 1 127 3 198 3 2 3 128 3 199 0 1.17266
327950284 2.34532655900568 16 186 44 0 ?105 200 178 189 0 0 1 134 196 203 0 200
 189 152 0 +201 202 16 200 47 0 ?203 151 186 196 0 0 1 134 152 204 0 147 196 204
 0 +205 206 136 201 2 5 4 3 5 FFT1 207 208 209 135 202 2 0 45 20 207 -.001154101
84788472 .00200103696235454 .001421021416551216 1 -.001519527241495025 .00152020
951265099 .001660843159362145 1.03802697460134 -.001732050807568875 .001 .0016 1
 -.002076303677778025 .000555844436551685 .001660843159362135 1.038026974601334
 -.002309999767253035 -1036962354536962e-21 .001421021416551216 1 127 3 208 3 2
 3 128 3 209 0 1.17266327950284 2.34532655900568 134 204 205 0 210 152 211 0 +21
2 213 136 205 2 5 4 3 5 FFT1 214 215 216 135 206 2 0 45 20 214 .0011558979193683
16 .002 .001421021416551216 1 .00055677643628301 .0020760539492027 .001660843159
36216 1.03802697460135 0 .002 .0016 1 -.00055677643628301 .0020760539492027 .001
66084315936216 1.03802697460135 -.001155897919368316 .002 .001421021416551216 1
 127 3 215 3 2 3 128 3 216 0 1.17266327950284 2.34532655900568 16 210 83 0 ?217
 218 219 204 0 0 1 30 211 206 0 24 204 220 0 +-.00115470053837925 .002 -.001 0 6
12303176911189e-31 1 136 212 2 5 4 3 5 FFT1 221 222 223 135 213 2 0 45 20 221 .0
02309999767253035 -1036962354537794e-21 .001421021416551216 1 .00207630367777800
5 .000555844436551682 .00166084315936212 1.038026974601326 .001732050807568875 .
001 .0016 1 .001519527241495005 .00152020951265097 .00166084315936212 1.03802697
4601324 .00115410184788472 .00200103696235454 .001421021416551216 1 127 3 222 3
 2 3 128 3 223 0 1.17266327950284 2.34532655900568 16 24 122 0 ?99 9 157 211 0 0
 1 134 220 207 0 218 211 224 0 +225 226 16 218 85 0 ?120 119 210 220 0 0 1 134 2
24 208 0 227 220 228 0 +229 230 136 225 2 5 4 3 5 FFT1 231 232 233 135 226 2 0 4
5 20 231 .001155897919368316 .002 .001421021416551216 1 .00055677643628301 .0020
760539492027 .00166084315936216 1.03802697460135 0 .002 .0016 1 -.00055677643628
301 .0020760539492027 .00166084315936216 1.03802697460135 -.001155897919368316 .
002 .001421021416551216 1 127 3 232 3 2 3 128 3 233 0 1.17266327950284 2.3453265
5900568 16 227 17 0 ?234 129 166 224 0 0 1 31 228 209 0 235 224 143 0 +0 0 0 0 6
12303176911189e-31 1 1 0 0 .002 136 229 2 5 4 3 5 FFT1 236 237 238 135 230 2 0 4
5 20 236 .001155897919368316 -.002 .000178978583448784 1 .000556776436283017 -.0
02076053949202715 24866400175741e-32 1.03802697460136 -3845925372767125e-34 -.00
2 19184957442131e-32 1 -.000556776436283011 -.00207605394920269 1784371010574195
e-34 1.038026974601344 -.001155897919368316 -.002 .000178978583448784 1 127 3 23
7 3 2 3 128 3 238 0 1.17266327950284 2.34532655900568 16 235 23 0 ?239 177 129 2
28 0 0 1 134 143 210 0 126 228 240 0 +241 242 31 240 211 0 243 143 244 0 +0 9796
85083057902e-34 .0016 0 612303176911189e-31 1 1 0 0 .001 136 241 2 5 4 3 5 FFT1
 245 246 247 135 242 2 0 45 20 245 -.00115410184788472 .00200103696235454 .00142
1021416551216 1 -.001519527241495025 .00152020951265099 .001660843159362145 1.03
802697460134 -.001732050807568875 .001 .0016 1 -.002076303677778025 .00055584443
6551685 .001660843159362135 1.038026974601334 -.002309999767253035 -103696235453
6962e-21 .001421021416551216 1 127 3 246 3 2 3 128 3 247 0 1.17266327950284 2.34
532655900568 16 243 89 0 ?248 249 119 240 0 0 1 134 244 212 0 250 240 251 0 +252
 253 16 250 69 0 ?254 255 145 244 0 0 1 134 251 213 0 176 244 256 0 +257 258 136
 252 2 5 4 3 5 FFT1 259 260 261 135 253 2 0 45 20 259 -.001155897919368316 -.002
 .001421021416551216 1 -.000556776436283013 -.0020760539492027 .0016608431593621
6 1.03802697460135 -3845925372767125e-34 -.002 .0016 1 .000556776436283009 -.002
076053949202695 .001660843159362155 1.038026974601346 .001155897919368314 -.002
 .001421021416551216 1 127 3 260 3 2 3 128 3 261 0 1.17266327950284 2.3453265590
0568 16 176 29 0 ?262 263 168 251 0 0 1 134 256 214 0 264 251 265 0 +266 267 136
 257 2 5 4 3 5 FFT1 268 269 270 135 258 2 0 45 20 268 -.001155897919368316 .002
 .000178978583448784 1 -.000556776436283008 .00207605394920269 -3116881434112415
e-34 1.038026974601344 0 .002 -1502162109978665e-34 1 .000556776436283008 .00207
605394920269 -3116881434112415e-34 1.038026974601344 .001155897919368316 .002 .0
00178978583448784 1 127 3 269 3 2 3 128 3 270 0 1.17266327950284 2.3453265590056
8 16 264 76 0 ?271 272 273 256 0 0 1 134 265 215 0 272 256 274 0 +275 276 136 26
6 2 5 4 3 5 FFT1 277 278 279 135 267 2 0 45 20 277 .00115410184788472 -.00200103
696235454 .001421021416551216 1 .001519527241495035 -.001520209512651 .001660843
15936215 1.038026974601344 .001732050807568875 -.001 .0016 1 .002076303677778035
 -.000555844436551687 .001660843159362145 1.03802697460134 .002309999767253035 1
036962354537612e-21 .001421021416551216 1 127 3 278 3 2 3 128 3 279 0 1.17266327
950284 2.34532655900568 16 272 78 0 ?280 219 264 265 0 0 1 31 274 216 0 31 265 2
81 0 +0 0 0 0 612303176911189e-31 1 1 0 0 .001 136 275 2 5 4 3 5 FFT1 282 283 28
4 135 276 2 0 45 20 282 .002309999767253035 -1036962354537794e-21 .0014210214165
51216 1 .002076303677778005 .000555844436551682 .00166084315936212 1.03802697460
1326 .001732050807568875 .001 .0016 1 .001519527241495005 .00152020951265097 .00
166084315936212 1.038026974601324 .00115410184788472 .00200103696235454 .0014210
21416551216 1 127 3 283 3 2 3 128 3 284 0 1.17266327950284 2.34532655900568 16 3
1 104 0 ?26 134 18 274 0 0 1 30 281 217 0 133 274 285 0 +.00115470053837925 -.00
2 -.001 0 612303176911189e-31 1 16 133 116 0 ?74 157 123 281 0 0 1 134 285 218 0
 167 281 286 0 +287 288 16 167 10 0 ?289 158 290 285 0 0 1 134 286 219 0 195 285
 291 0 +292 293 136 287 2 5 4 3 5 FFT1 294 295 296 135 288 2 0 45 20 294 .002309
999767253035 103696235453825e-20 .000178978583448784 1 .00207630367777804 -.0005
55844436551687 4463924868291325e-34 1.038026974601342 .001732050807568875 -.001
 186130407961449e-33 1 .00151952724149502 -.00152020951265099 462224312531995e-3
3 1.038026974601336 .00115410184788472 -.00200103696235454 .000178978583448784 1
 127 3 295 3 2 3 128 3 296 0 1.17266327950284 2.34532655900568 16 195 34 0 ?89 1
88 263 286 0 0 1 134 291 220 0 255 286 149 0 +297 298 136 292 2 5 4 3 5 FFT1 299
 300 301 135 293 2 0 45 20 299 -.001155897919368316 .002 .000178978583448784 1 -
.000556776436283008 .00207605394920269 -3116881434112415e-34 1.038026974601344 0
 .002 -1502162109978665e-34 1 .000556776436283008 .00207605394920269 -3116881434
112415e-34 1.038026974601344 .001155897919368316 .002 .000178978583448784 1 127
 3 300 3 2 3 128 3 301 0 1.17266327950284 2.34532655900568 16 255 71 0 ?302 273
 250 291 0 0 1 31 149 221 0 141 291 303 0 +0 979685083057902e-34 .0016 0 6123031
76911189e-31 1 1 0 0 .002 136 297 2 5 4 3 5 FFT1 304 305 306 135 298 2 0 45 20 3
04 .00115410184788472 -.00200103696235454 .001421021416551216 1 .001519527241495
035 -.001520209512651 .00166084315936215 1.038026974601344 .001732050807568875 -
.001 .0016 1 .002076303677778035 -.000555844436551687 .001660843159362145 1.0380
2697460134 .002309999767253035 1036962354537612e-21 .001421021416551216 1 127 3
 305 3 2 3 128 3 306 0 1.17266327950284 2.34532655900568 134 303 222 0 187 149 3
07 0 +308 309 16 187 41 0 ?310 178 92 303 0 0 1 31 307 223 0 273 303 311 0 +0 97
9685083057902e-34 .0016 0 612303176911189e-31 1 1 0 0 .002 136 308 2 5 4 3 5 FFT
1 312 313 314 135 309 2 0 45 20 312 .00115410184788472 .00200103696235454 .00017
8978583448784 1 .001519527241495025 .00152020951265099 1599140000794255e-34 1.03
802697460134 .001732050807568875 .001 -3347474207548995e-35 1 .00207630367777802
 .000555844436551685 -943576384484274e-34 1.038026974601332 .002309999767253035
 -1036962354538704e-21 .000178978583448784 1 127 3 313 3 2 3 128 3 314 0 1.17266
327950284 2.34532655900568 16 273 73 0 ?315 264 255 307 0 0 1 134 311 224 0 316
 307 19 0 +317 318 16 316 5 0 ?319 290 0 311 0 0 1 31 19 225 0 166 311 6 0 +0 0
 0 0 612303176911189e-31 1 1 0 0 .002 136 317 2 5 4 3 5 FFT1 320 321 322 135 318
 2 0 45 20 320 .001155897919368316 -.002 .000178978583448784 1 .0005567764362830
17 -.002076053949202715 24866400175741e-32 1.03802697460136 -3845925372767125e-3
4 -.002 19184957442131e-32 1 -.000556776436283011 -.00207605394920269 1784371010
574195e-34 1.038026974601344 -.001155897919368316 -.002 .000178978583448784 1 12
7 3 321 3 2 3 128 3 322 0 1.17266327950284 2.34532655900568 16 166 16 0 ?323 227
 158 19 0 0 1 17 323 0 324 234 165 42 325 166 0 326 +15 324 12 0 165 327 0 17 23
4 0 324 165 323 56 113 227 0 328 +17 165 0 324 323 234 47 328 158 0 0 +17 325 0
 329 330 326 47 323 166 0 165 -17 326 0 329 325 55 42 331 290 0 319 -15 329 108
 0 55 332 0 17 55 0 329 326 91 53 105 186 0 185 -17 331 0 333 289 319 53 326 290
 0 0 +16 290 8 0 ?331 167 316 334 0 0 1 17 319 0 333 331 289 42 335 316 0 0 +15
 333 4 0 319 336 0 17 289 0 333 319 331 39 337 167 0 335 +17 335 0 338 74 113 39
 319 316 0 0 -15 338 115 0 113 339 0 17 74 0 338 340 335 72 41 133 0 341 +17 113
 0 338 335 111 42 234 227 0 323 -17 111 0 338 113 342 56 69 134 0 234 -17 342 0
 338 111 340 67 343 142 0 0 -17 69 0 130 84 328 67 111 134 0 144 +16 134 112 0 ?
69 123 31 344 0 0 1 30 344 183 0 134 345 346 0 +-.001154700538379252 -.002 -.001
 0 612303176911189e-31 1 31 345 182 0 249 347 344 0 +0 84712144525663e-33 .00138
35 0 612303176911189e-31 1 1 0 0 7835e-7 31 346 184 0 348 344 349 0 +0 979685083
057902e-34 .0016 0 612303176911189e-31 1 1 0 0 .002 16 348 65 0 ?350 145 142 346
 0 0 1 134 349 185 0 145 346 351 0 +352 353 16 145 66 0 ?144 250 348 349 0 0 1 3
1 351 186 0 263 349 354 0 +0 0 0 0 612303176911189e-31 1 1 0 0 .002 136 352 2 5
 4 3 5 FFT1 355 356 357 135 353 2 0 45 20 355 -.002309999767253035 1036962354537
612e-21 .001421021416551216 1 -.00207630367777804 -.000555844436551693 .00166084
315936215 1.038026974601344 -.00173205080756888 -.001 .0016 1 -.0015195272414950
2 -.00152020951265098 .001660843159362135 1.038026974601336 -.001154101847884722
 -.002001036962354535 .001421021416551216 1 127 3 356 3 2 3 128 3 357 0 1.172663
279502838 2.345326559005675 16 263 31 0 ?85 195 176 351 0 0 1 31 354 187 0 219 3
51 334 0 +0 979685083057902e-34 .0016 0 612303176911189e-31 1 1 0 0 .002 16 219
 80 0 ?118 210 272 354 0 0 1 31 334 188 0 290 354 358 0 +0 0 0 0 612303176911189
e-31 1 1 0 0 .002 31 358 189 0 119 334 359 0 +0 979685083057902e-34 .0016 0 6123
03176911189e-31 1 1 0 0 .002 16 119 86 0 ?115 243 218 358 0 0 1 31 359 190 0 151
 358 360 0 +0 979685083057902e-34 .0016 0 612303176911189e-31 1 1 0 0 .002 16 15
1 50 0 ?117 147 200 359 0 0 1 134 360 191 0 129 359 361 0 +362 363 16 129 20 0 ?
128 235 227 360 0 0 1 31 361 192 0 92 360 135 0 +0 0 0 0 612303176911189e-31 1 1
 0 0 .002 136 362 2 5 4 3 5 FFT1 364 365 366 135 363 2 0 45 20 364 -.00230999976
7253035 -103696235453811e-20 .000178978583448784 1 -.002076303677778035 .0005558
44436551688 1694434116169075e-34 1.03802697460134 -.001732050807568875 .001 8158
62134795339e-35 1 -.00151952724149502 .00152020951265099 1482095166294268e-34 1.
038026974601336 -.001154101847884718 .00200103696235454 .000178978583448784 1 12
7 3 365 3 2 3 128 3 366 0 1.17266327950284 2.34532655900568 16 92 38 0 ?87 187 1
88 361 0 0 1 30 135 193 0 123 361 367 0 +-.002309401076758505 362990437351139e-3
3 -.001 0 612303176911189e-31 1 134 367 194 0 177 135 25 0 +368 369 16 177 24 0
 ?132 168 235 367 0 0 1 30 25 195 0 9 367 153 0 +.001154700538379252 .002 -.001
 0 612303176911189e-31 1 136 368 2 5 4 3 5 FFT1 370 371 372 135 369 2 0 45 20 37
0 -.00115410184788472 -.002001036962354535 .000178978583448784 1 -.0015195272414
95045 -.001520209512651005 304842333977479e-35 1.03802697460135 -.00173205080756
888 -.001 334747420754899e-34 1 -.00207630367777805 -.000555844436551694 -334913
34620779e-33 1.038026974601348 -.002309999767253035 103696235453813e-20 .0001789
78583448784 1 127 3 371 3 2 3 128 3 372 0 1.17266327950284 2.34532655900568 17 1
32 0 373 128 239 43 82 177 0 122 +15 373 19 0 128 374 0 17 128 0 373 239 132 46
 122 129 0 0 +17 239 0 373 132 128 47 330 235 0 325 +17 82 0 130 328 45 47 132 1
77 0 239 -17 328 0 130 69 82 56 165 158 0 0 -17 330 0 329 375 325 46 239 235 0 1
28 -17 375 0 329 91 330 61 85 263 0 262 -17 91 0 329 55 375 60 87 92 0 90 -17 85
 0 376 175 262 46 375 263 0 97 +17 262 0 376 85 175 61 100 176 0 0 +15 376 26 0
 175 377 0 17 175 0 376 262 85 86 97 168 0 0 +17 100 0 378 99 93 86 262 176 0 17
5 -15 378 124 0 100 379 0 17 99 0 378 380 100 66 94 24 0 150 +17 93 0 378 100 59
 61 89 195 0 375 -17 59 0 378 93 381 57 23 9 0 382 -17 89 0 88 90 87 57 93 195 0
 0 +15 88 33 0 89 383 0 17 90 0 88 87 89 60 382 188 0 0 +17 382 0 384 23 385 57
 90 188 0 89 -15 384 127 0 382 14 0 17 23 0 384 386 382 79 59 9 0 381 +17 385 0
 384 382 114 60 310 187 0 91 -17 114 0 384 385 387 106 49 157 0 388 -17 310 0 38
9 185 105 106 385 187 0 0 +15 389 40 0 310 390 0 17 185 0 389 105 310 53 388 178
 0 337 +17 105 0 389 310 185 60 55 186 0 385 +17 388 0 391 49 337 106 185 178 0
 310 -17 337 0 391 388 41 53 289 167 0 331 -15 391 118 0 337 392 0 17 41 0 391 3
37 341 39 74 133 0 289 -17 341 0 391 41 393 72 302 255 0 254 -17 393 0 391 341 4
9 51 271 264 0 315 -17 302 0 394 108 254 51 341 255 0 0 +17 254 0 394 302 108 72
 340 250 0 0 +15 394 68 0 254 395 0 17 108 0 394 254 302 70 315 273 0 340 -17 34
0 0 338 342 74 70 254 250 0 350 -17 350 0 116 315 140 70 146 348 0 343 +15 116 9
1 0 118 396 397 17 315 0 116 118 350 51 108 273 0 302 +17 140 0 116 350 117 71 1
27 141 0 137 +17 146 0 398 144 343 71 350 348 0 140 -17 343 0 398 146 144 70 342
 142 0 0 +15 398 61 0 343 399 0 17 144 0 398 343 146 67 84 145 0 342 +16 142 62
 0 ?343 348 126 347 0 0 1 134 347 181 0 142 0 345 0 +400 401 136 400 2 5 4 3 5 F
FT1 402 403 404 135 401 2 0 45 20 402 -.001155897919368316 -.002 .00142102141655
1216 1 -.000556776436283013 -.0020760539492027 .00166084315936216 1.038026974601
35 -3845925372767125e-34 -.002 .0016 1 .000556776436283009 -.002076053949202695
 .001660843159362155 1.038026974601346 .001155897919368314 -.002 .00142102141655
1216 1 127 3 403 3 2 3 128 3 404 0 1.17266327950284 2.34532655900568 14 399 60 0
 ?138 395 398 4 405 +0 0 138 395 22 14 138 53 0 ?406 399 136 4 407 +0 0 406 399
 22 14 395 67 0 ?399 408 394 4 409 +0 0 399 408 22 52 405 130 0 399 0 410 0 +0 9
24890505435524e-34 .00151051070827561 0 -612303176911189e-31 -1 .002155 .8660254
03784439 .5 1 0 0 13 22 2 0 0 0 0 0 0 8 14 14 14 126 0 ?379 0 384 4 410 +0 0 379
 0 22 14 379 123 0 ?125 14 378 4 411 +0 0 125 14 22 50 410 131 0 14 405 412 0 +.
001732050807568875 .001 -.001 .866025403784439 .5 -3061515884555945e-32 -.5 .866
025403784439 -530270106023007e-31 52 412 132 0 377 410 413 0 +0 547945776223774e
-35 89489291724392e-18 0 612303176911189e-31 1 .002155 .866025403784439 .5 1 0 0
 14 377 25 0 ?374 383 376 4 412 +0 0 374 383 22 50 413 133 0 332 412 414 0 +.001
5 0 0 0 -612303176911189e-31 -1 -1 0 0 14 332 107 0 ?415 16 29 4 413 +0 0 415 16
 22 52 414 134 0 336 413 409 0 +0 547945776223774e-35 89489291724392e-18 0 61230
3176911189e-31 1 .002155 .866025403784439 .5 1 0 0 14 336 3 0 ?0 327 333 4 414 +
0 0 0 327 22 52 409 135 0 395 414 416 0 +0 924890505435524e-34 .0015105107082756
1 0 -612303176911189e-31 -1 .002155 .866025403784439 .5 1 0 0 50 416 136 0 396 4
09 417 0 +.0015 979685083057902e-34 .0016 0 612303176911189e-31 1 1 0 0 14 396 8
7 0 ?418 419 116 4 416 +0 0 418 419 22 52 417 137 0 374 416 420 0 +0 54794577622
3774e-35 89489291724392e-18 0 612303176911189e-31 1 .002155 .866025403784439 .5
 1 0 0 14 374 18 0 ?327 377 373 4 417 +0 0 327 377 22 52 420 138 0 327 417 421 0
 +0 547945776223774e-35 89489291724392e-18 0 612303176911189e-31 1 .002155 .8660
25403784439 .5 1 0 0 14 327 11 0 ?336 374 324 4 420 +0 0 336 374 22 52 421 139 0
 383 420 422 0 +0 547945776223774e-35 89489291724392e-18 0 612303176911189e-31 1
 .002155 .866025403784439 .5 1 0 0 14 383 32 0 ?377 390 88 4 421 +0 0 377 390 22
 52 422 140 0 390 421 407 0 +0 547945776223774e-35 89489291724392e-18 0 61230317
6911189e-31 1 .002155 .866025403784439 .5 1 0 0 14 390 39 0 ?383 406 389 4 422 +
0 0 383 406 22 52 407 141 0 138 422 423 0 +0 924890505435524e-34 .00151051070827
561 0 -612303176911189e-31 -1 .002155 .866025403784439 .5 1 0 0 52 423 142 0 418
 407 424 0 +0 924890505435524e-34 .00151051070827561 0 -612303176911189e-31 -1 .
002155 .866025403784439 .5 1 0 0 14 418 81 0 ?408 396 425 4 423 +0 0 408 396 22
 50 424 143 0 125 423 411 0 +-.001732050807568875 .001 -.001 -.866025403784439 .
5 -3061515884555945e-32 -.5 -.866025403784439 530270106023007e-31 14 125 120 0 ?
392 379 96 4 424 +0 0 392 379 22 50 411 144 0 379 424 426 0 +4440892098500625e-3
4 .002 -.001 0 1 -612303176911189e-31 -1 0 0 52 426 145 0 419 411 427 0 +0 91340
3264157266e-34 .00149175 0 612303176911189e-31 1 89175e-8 .707106781186548 .7071
06781186547 1 0 0 14 419 92 0 ?396 428 429 4 426 -0 0 396 428 22 52 427 146 0 41
5 426 430 0 +0 662818189006362e-35 10825e-8 0 -612303176911189e-31 -1 89175e-8 .
707106781186548 .707106781186548 1 0 0 14 415 102 0 ?428 332 431 4 427 -0 0 428
 332 22 52 430 147 0 406 427 432 0 +0 924890505435524e-34 .00151051070827561 0 -
612303176911189e-31 -1 .002155 .866025403784439 .5 1 0 0 14 406 45 0 ?390 138 43
3 4 430 +0 0 390 138 22 50 432 148 0 392 430 434 0 +.001732050807568875 -.001 -.
001 .866025403784439 -.5 3061515884555945e-32 .5 .866025403784439 -5302701060230
07e-31 14 392 117 0 ?339 125 391 4 432 +0 0 339 125 22 52 434 149 0 408 432 435
 0 +0 924890505435524e-34 .00151051070827561 0 -612303176911189e-31 -1 .002155 .
866025403784439 .5 1 0 0 14 408 74 0 ?395 418 436 4 434 +0 0 395 418 22 51 435 1
50 0 428 434 17 0 +0 489842541528951e-34 8e-4 0 -612303176911189e-31 -1 7835e-7
 1 0 0 14 428 97 0 ?419 415 437 4 435 -0 0 419 415 22 50 17 151 0 339 435 5 0 +-
888178419700125e-33 -.002 -.001 -1922962686383565e-31 -1 612303176911189e-31 1 -
1922962686383565e-31 117743616195433e-46 14 339 114 0 ?16 392 338 4 17 +0 0 16 3
92 22 14 16 110 0 ?332 339 130 4 5 +0 0 332 339 22 15 437 101 0 103 428 438 17 1
03 0 437 103 103 33 439 249 0 439 +15 438 98 0 440 428 0 17 440 0 438 440 440 27
 32 18 0 0 -17 32 0 431 32 32 27 440 18 0 440 +16 18 99 0 ?32 31 249 6 0 0 1 16
 249 94 0 ?103 18 243 345 0 0 1 15 431 106 0 32 415 441 15 441 103 0 30 415 0 17
 30 0 441 30 30 10 26 31 0 0 -17 439 0 442 439 439 33 103 249 0 0 -15 442 93 0 4
39 419 0 15 436 75 0 271 408 0 17 271 0 436 280 76 48 393 264 0 0 +17 280 0 436
 76 271 50 387 272 0 0 +17 76 0 436 271 280 51 118 219 0 393 -17 118 0 116 115 3
15 50 76 219 0 280 +17 387 0 384 114 386 48 280 272 0 271 -17 386 0 384 387 23 5
0 217 210 0 118 -17 217 0 425 120 78 79 386 210 0 0 +15 425 82 0 217 418 0 17 12
0 0 425 78 217 65 381 218 0 380 +17 78 0 425 217 120 50 115 119 0 386 -17 381 0
 378 59 380 79 120 218 0 217 -17 380 0 378 381 99 65 150 147 0 443 -17 150 0 433
 203 443 66 380 147 0 98 +17 443 0 433 150 203 65 117 151 0 0 -15 433 46 0 203 4
06 0 17 203 0 433 443 150 62 98 200 0 0 +17 117 0 116 140 115 62 443 151 0 203 +
17 98 0 96 94 64 66 203 200 0 0 -15 429 96 0 248 419 442 17 248 0 429 248 248 20
 444 243 0 444 +18 20 90 0 248 33 79 7 ?1 17 444 0 397 444 444 20 248 243 0 0 -1
5 397 88 0 444 396 0 15 29 109 0 26 332 329 17 49 0 391 393 388 48 114 157 0 387
 +16 157 119 0 ?49 24 133 153 0 0 1 17 97 0 96 122 94 46 175 168 0 330 -19 15 12
8 0 1 0 8 4 S74 20 13 1 0 2 0 0 0 0 0 0 0 0 0 0 0 0 0 0 0 0 0 0 0 80 1 11 445 44
6 8017 0 0 0 0 0 0 0 0 0 TTTTTTTTTTTTTF3 84 22 12 din_en_iso_4032_m2x0_479 13 44
6 SDL/TYSA_NAME1 0 
