**ABCDEFGHIJKLMNOPQRSTUVWXYZabcdefghijklmnopqrstuvwxyz**************************
**PARASOLID !"#$%&'()*+,-./:;<=>?@[\]^_`{|}~0123456789**************************
**PART1;
FORMAT=text;
GUISE=transmit;
KEY=unicode filename;
FILE=unicode filename;
DATE=unknown;
**PART2;
SCH=SCH_3200152_32001;
USFLD_SIZE=0;
**PART3;
**END_OF_HEADER*****************************************************************
T51 : TRANSMIT FILE created by modeller version 320015217 SCH_1300000_130060 12
 1 140 2 3 0 0 0 0 1e3 1e-8 0 0 0 1 0 1 1 4 5 6 7 8 9 10 81 1 2 140 11 1 0 0 0 0
 12 70 3 0 1 0 0 4 1 20 4 13 13 1 T13 4 82 0 1 0 14 0 0 15 0 50 5 96 0 16 17 0 0
 +-.0003249998484687145 -.00056291625 .0014 -.5 -.866025403784439 -5302701060230
07e-31 -.866025403784439 .5 306151588455594e-31 31 6 139 0 18 19 0 0 +5248812526
37748e-50 857224447675664e-34 0 -3749151804555345e-48 -612303176911189e-31 1 -1
 612303176911189e-31 0 7e-4 29 7 115 0 20 21 0 -7e-4 85340520660968e-32 -.011837
625 19 8 1 0 1 15 0 22 V16 9 75 0 ?23 0 24 25 0 0 1 18 10 76 0 23 0 26 27 ?1 17
 23 0 28 23 23 10 29 9 0 29 +18 26 71 0 30 10 31 32 ?1 29 27 102 0 10 33 34 -.00
13 165321857766021e-33 0 29 33 101 0 35 36 27 .00064999969693743 -.0003752775 .0
014 29 34 103 0 31 27 37 -.00117 716394716986091e-34 .0014 18 31 67 0 38 26 39 3
4 ?1 29 37 104 0 39 34 40 -537625e-9 853405206609681e-33 -.012 18 39 59 0 41 31
 42 37 ?1 29 40 105 0 43 37 44 459567210946577e-34 -750555e-9 .0014 18 43 22 0 4
5 35 46 40 ?1 29 44 106 0 47 40 48 -.00064999969693743 .0003752775 .0014 18 47 3
9 0 49 50 51 44 ?1 29 48 107 0 52 44 53 38741227738888e-49 632713159097445e-34 .
0003666668687083805 18 52 18 0 54 55 0 48 ?1 29 53 108 0 56 48 57 21249017478843
1e-33 750555e-9 8e-4 18 56 7 0 58 59 55 53 ?1 29 57 109 0 60 53 32 .000649999696
93743 .0003752775 .0014 18 60 29 0 61 51 35 57 ?1 29 32 110 0 26 57 62 -.0013 87
5593542983e-31 .00127 29 62 111 0 42 32 63 7e-4 1285836671513496e-34 0 18 42 55
 0 64 39 20 62 ?1 29 63 112 0 55 62 65 -.00064999969693743 .0003752775 8e-4 18 5
5 6 0 66 56 52 63 ?1 29 65 113 0 51 63 21 459567210946577e-34 750555e-9 .0014 18
 51 34 0 67 47 60 65 ?1 29 21 114 0 68 65 7 1205767325991158e-34 -750555e-9 8e-4
 18 68 11 0 69 70 59 21 ?1 17 69 0 71 72 45 68 73 74 0 75 +18 70 13 0 76 46 68 7
7 ?1 18 59 9 0 78 68 56 36 ?1 17 78 0 79 80 81 59 82 83 0 72 +29 36 100 0 59 84
 33 -.000649999696937429 -.0003752775 8e-4 29 84 99 0 50 85 36 -.000649999696937
429 -.0003752775 .0014 18 50 44 0 86 20 47 84 ?1 29 85 98 0 46 77 84 .0006499996
9693743 .0003752775 8e-4 18 46 15 0 87 43 70 85 ?1 29 77 97 0 70 0 85 .000649999
69693743 -.0003752775 8e-4 17 87 0 88 89 90 46 91 92 0 93 +15 88 27 0 89 94 0 17
 89 0 88 95 87 70 96 97 0 98 +17 90 0 88 87 95 60 99 100 0 0 -17 91 0 101 102 93
 60 87 92 0 90 -16 92 30 0 ?87 103 100 104 0 0 1 17 93 0 101 91 58 46 105 106 0
 96 +15 101 32 0 93 107 0 17 58 0 101 93 102 56 108 109 0 105 +17 105 0 110 111
 96 56 93 106 0 112 -16 106 16 0 ?93 74 97 113 0 0 1 17 96 0 110 105 98 46 89 97
 0 0 -15 110 4 0 111 114 0 17 98 0 110 96 115 70 75 116 0 0 -16 97 14 0 ?89 106
 116 117 0 0 1 16 116 12 0 ?75 97 118 119 0 0 1 134 117 118 0 97 120 121 0 +122
 123 30 120 117 0 124 125 117 0 +-.000544374848468715 .000436260034696526 .0014
 .866025403784439 .5 -515627337349348e-31 30 121 119 0 126 117 127 0 +-.00064999
9696937429 -712226145199059e-34 .0014 -234610233534349e-30 1 612303176911189e-31
 136 122 2 3 4 2 5 FFT1 128 129 130 135 123 2 0 45 12 128 .00064999969693743 .00
03752775 8e-4 1 750555e-9 4124340902959065e-36 .000798667930703404 1.15470053837
9254 .00064999969693743 -.0003752775 8e-4 1 127 2 129 3 3 128 2 130 0 .759483135
641386 16 126 43 0 ?49 83 131 121 0 0 1 30 127 120 0 132 121 133 0 +-.0005443748
48468715 -.000436260034696526 .0014 -.866025403784439 .5 1127930514260536e-31 16
 132 48 0 ?86 134 83 127 0 0 1 134 133 121 0 135 127 136 0 +137 138 16 135 8 0 ?
80 118 139 133 0 0 1 30 136 122 0 74 133 140 0 +459567210946577e-34 -750555e-9 .
0014 3749151804555345e-48 612303176911189e-31 -1 136 137 2 3 4 2 5 FFT1 141 142
 143 135 138 2 0 45 12 141 -.000649999696937429 -.0003752775 8e-4 1 -750555e-9 -
962584855460821e-34 .000798667930703403 1.154700538379254 -.00064999969693743 .0
003752775 8e-4 1 127 2 142 3 3 128 2 143 0 .759483135641387 16 74 21 0 ?69 144 1
06 136 0 0 1 30 140 123 0 83 136 145 0 +-.000649999696937429 -.0003752775 .0014
 3749151804555345e-48 612303176911189e-31 -1 16 83 45 0 ?78 132 126 140 0 0 1 31
 145 124 0 134 140 146 0 +496298656567769e-49 810543984225897e-33 -.011837625 37
49151804555345e-48 612303176911189e-31 -1 -1 612303176911189e-31 0 7e-4 16 134 5
1 0 ?147 18 132 145 0 0 1 134 146 125 0 118 145 148 0 +149 150 16 118 10 0 ?72 1
16 135 146 0 0 1 30 148 126 0 103 146 151 0 +.0001056248484687148 .0006895724653
03474 .0014 .866025403784439 -.5 -1127930514260536e-31 136 149 2 3 4 2 5 FFT1 15
2 153 154 135 150 2 0 45 12 152 -823112838332267e-33 -750555e-9 8e-4 1 -.0003752
775 -.000649999696937433 .000798667930703406 1.154700538379256 -.000649999696937
428 -.0003752775 8e-4 1 127 2 153 3 3 128 2 154 0 .759483135641385 16 103 33 0 ?
61 109 92 148 0 0 1 30 151 127 0 144 148 113 0 +.000105624848468715 -.0006895724
65303474 .0014 -.866025403784439 -.5 515627337349347e-31 16 144 23 0 ?155 156 74
 151 0 0 1 134 113 128 0 106 151 104 0 +157 158 30 104 129 0 92 113 159 0 +.0006
4999969693743 .0003752775 .0014 3749151804555345e-48 612303176911189e-31 -1 136
 157 2 3 4 2 5 FFT1 160 161 162 135 158 2 0 45 12 160 601068233407236e-33 750555
e-9 8e-4 1 .0003752775 .000649999696937432 .000798667930703405 1.154700538379256
 .000649999696937429 .0003752775 8e-4 1 127 2 161 3 3 128 2 162 0 .7594831356413
86 31 159 130 0 163 104 164 0 +0 0 .0014 3749151804555345e-48 612303176911189e-3
1 -1 -1 612303176911189e-31 0 .00117 16 163 66 0 ?38 24 165 159 0 0 1 31 164 131
 0 24 159 119 0 +487389734592194e-51 795994129984545e-35 .00127 3749151804555345
e-48 612303176911189e-31 -1 -1 612303176911189e-31 513993213479268e-63 .0013 16
 24 70 0 ?30 9 163 164 0 0 1 134 119 132 0 116 164 166 0 +167 168 134 166 133 0
 139 119 169 0 +170 171 136 167 2 3 4 2 5 FFT1 172 173 174 135 168 2 0 45 12 172
 .000649999696937429 -.0003752775 8e-4 1 .0003752775 -.000649999696937431 .00079
8667930703404 1.154700538379254 897732849836725e-33 -750555e-9 8e-4 1 127 2 173
 3 3 128 2 174 0 .759483135641386 16 139 5 0 ?112 135 0 166 0 0 1 30 169 134 0 1
31 166 175 0 +-.00064999969693743 .0003752775 .0014 3749151804555345e-48 6123031
76911189e-31 -1 136 170 2 3 4 2 5 FFT1 176 177 178 135 171 2 0 45 12 176 -.00064
9999696937429 .0003752775 8e-4 1 -.0003752775 .000649999696937432 .0007986679307
03405 1.154700538379256 -50915479121792e-32 750555e-9 8e-4 1 127 2 177 3 3 128 2
 178 0 .759483135641386 16 131 40 0 ?66 126 124 169 0 0 1 30 175 135 0 109 169 2
5 0 +459567210946577e-34 750555e-9 .0014 3749151804555345e-48 612303176911189e-3
1 -1 16 109 35 0 ?58 124 103 175 0 0 1 31 25 136 0 9 175 179 0 +524881252637748e
-50 857224447675664e-34 0 3749151804555345e-48 612303176911189e-31 -1 -1 6123031
76911189e-31 513993213479268e-63 .0013 30 179 137 0 156 25 19 0 +.00064999969693
743 -.0003752775 .0014 3749151804555345e-48 612303176911189e-31 -1 16 156 25 0 ?
76 100 144 179 0 0 1 30 19 138 0 100 179 6 0 +.00064999969693743 157114632886480
5e-35 .0014 -612303176911189e-31 -1 -612303176911189e-31 16 100 28 0 ?99 92 156
 19 0 0 1 17 99 0 180 155 61 35 90 100 0 95 +15 180 64 0 155 181 0 17 155 0 180
 86 99 43 182 144 0 73 +17 61 0 180 99 67 60 102 103 0 91 +18 35 24 0 99 60 43 3
3 ?1 17 95 0 88 90 89 35 76 156 0 182 -17 76 0 183 75 182 70 95 156 0 89 +17 182
 0 183 76 73 35 155 144 0 0 -15 183 20 0 75 184 0 17 73 0 183 182 75 43 69 74 0
 0 -17 75 0 183 73 76 68 98 116 0 115 +17 115 0 110 98 185 68 72 118 0 0 -17 185
 0 110 115 111 59 80 135 0 0 -17 72 0 71 82 69 59 115 118 0 185 +15 71 47 0 72 1
6 0 17 82 0 71 45 72 50 78 83 0 81 -17 45 0 71 69 82 43 86 132 0 155 -17 81 0 79
 78 186 50 49 126 0 0 -15 79 42 0 80 187 0 17 186 0 79 81 80 47 66 131 0 188 -17
 49 0 180 67 86 47 81 126 0 186 +17 67 0 180 61 49 51 188 124 0 108 +17 86 0 180
 49 155 50 45 132 0 82 +17 188 0 189 66 108 47 67 124 0 0 -16 124 38 0 ?67 131 1
09 120 0 0 1 17 108 0 189 188 112 51 58 109 0 102 -15 189 37 0 112 190 0 17 112
 0 189 108 66 56 111 139 0 0 +17 102 0 101 58 91 51 61 103 0 0 -17 66 0 189 112
 188 55 186 131 0 80 +17 111 0 110 185 105 55 112 139 0 0 -17 80 0 79 186 78 55
 185 135 0 111 +14 190 36 0 ?107 187 189 4 191 -0 0 107 187 22 14 107 31 0 ?94 1
90 101 4 192 -0 0 94 190 22 14 187 41 0 ?190 16 79 4 193 -0 0 190 16 22 50 191 8
4 0 190 194 195 0 +-.0003249998484687145 .00056291625 .0014 -.5 .866025403784439
 530270106023007e-31 .866025403784439 .5 3061515884555945e-32 13 22 2 0 0 0 0 0
 0 8 14 14 14 78 0 ?196 0 28 4 194 +0 0 196 0 22 14 196 73 0 ?197 14 198 4 199 +
0 0 197 14 22 15 28 80 0 23 14 200 50 194 83 0 14 0 191 0 +-65e-5 12552215126679
36e-34 0 3749151804555345e-48 612303176911189e-31 -1 -1 612303176911189e-31 0 15
 200 79 0 64 14 0 17 64 0 200 64 64 42 201 18 0 201 +17 201 0 202 201 201 42 64
 18 0 0 -16 18 54 0 ?64 165 134 6 0 0 1 16 165 58 0 ?41 163 18 125 0 0 1 17 41 0
 203 41 41 39 204 165 0 204 +31 125 116 0 165 0 120 0 +502386341810416e-49 82048
6257060993e-33 -.012 3749151804555345e-48 612303176911189e-31 -1 -1 612303176911
189e-31 621428670098162e-63 537625e-9 15 203 62 0 41 205 0 17 204 0 206 204 204
 39 41 165 0 0 -15 206 57 0 204 207 0 14 207 56 0 ?208 205 209 4 17 +0 0 208 205
 22 14 208 49 0 ?16 207 202 4 210 +0 0 16 207 22 14 205 61 0 ?207 181 203 4 211
 +0 0 207 181 22 15 209 60 0 147 207 206 52 17 95 0 207 192 5 0 +499342499189093
e-49 815515120643445e-33 -.0119188125 -3749151804555345e-48 -612303176911189e-31
 1 .0006188125 .707106781186546 .70710678118655 -1 612303176911189e-31 0 50 192
 94 0 107 199 17 0 +.000324999848468715 .00056291625 .0014 .5 .866025403784439 5
30270106023007e-31 .866025403784439 -.5 -3061515884555945e-32 51 199 93 0 196 19
3 192 0 +286810113048484e-50 468411930337059e-34 635e-6 -3749151804555345e-48 -6
12303176911189e-31 1 .0013 -1 612303176911189e-31 513993213479268e-63 50 193 92
 0 187 212 199 0 +-.000649999696937429 -1267337657511636e-34 .0014 -1 -234610233
534349e-30 -1811441093745115e-47 -234610233534349e-30 1 612303176911189e-31 54 2
12 91 0 197 213 193 0 +487389734592194e-51 795994129984545e-35 .00127 3749151804
555345e-48 612303176911189e-31 -1 .00117 13e-5 -612303176911189e-31 -1 -61230317
6911189e-31 14 197 68 0 ?181 196 214 4 212 +0 0 181 196 22 50 213 90 0 184 211 2
12 0 +.000324999848468715 -.00056291625 .0014 .5 -.866025403784439 -530270106023
007e-31 -.866025403784439 -.5 -3061515884555945e-32 14 184 19 0 ?114 94 183 4 21
3 -0 0 114 94 22 50 211 89 0 205 215 213 0 +-.0002688125 836945731835337e-33 -.0
12 3749151804555345e-48 612303176911189e-31 -1 -1 612303176911189e-31 0 50 215 8
8 0 181 210 211 0 +-585e-6 3581973584930455e-35 .0014 94890856805569e-30 -612303
176911189e-31 1 1 -612303176911189e-31 -948908568055689e-31 14 181 63 0 ?205 197
 216 4 215 +0 0 205 197 22 51 210 87 0 208 217 215 0 +2556476318929955e-50 41751
80556511725e-34 -.0054188125 -3749151804555345e-48 -612303176911189e-31 1 7e-4 -
1 612303176911189e-31 0 50 217 86 0 94 195 210 0 +.00064999969693743 71222614519
9059e-34 .0014 1 -612303176911189e-31 652530446799853e-63 -612303176911189e-31 -
1 -612303176911189e-31 14 94 26 0 ?184 107 88 4 217 -0 0 184 107 22 52 195 85 0
 114 191 217 0 +3061806928311005e-51 500047532622079e-34 .00058333343435419 -374
9151804555345e-48 -612303176911189e-31 1 .0003752775 .866025403784439 .5 -1 6123
03176911189e-31 0 14 114 3 0 ?0 184 218 4 195 -0 0 0 184 22 15 218 17 0 54 114 1
10 17 54 0 218 54 54 52 0 0 0 0 ?15 216 65 0 219 181 180 17 219 0 216 219 219 31
 38 163 0 0 -17 38 0 214 38 38 31 219 163 0 219 +15 214 72 0 38 197 220 15 220 6
9 0 221 197 0 17 221 0 220 221 221 26 30 24 0 0 -17 30 0 198 30 30 26 221 24 0 2
21 +15 198 77 0 30 196 222 15 222 74 0 29 196 0 17 29 0 222 29 29 10 23 9 0 0 -1
7 147 0 209 147 147 20 223 134 0 223 +18 20 52 0 147 42 50 7 ?1 17 223 0 224 223
 223 20 147 134 0 0 -15 224 50 0 223 208 0 14 16 46 0 ?187 208 71 4 5 -0 0 187 2
08 22 15 202 53 0 201 208 224 19 15 81 0 1 0 8 4 S74 20 13 1 0 2 0 0 0 0 0 0 0 0
 0 0 0 0 0 0 0 0 0 0 0 80 1 11 225 226 8017 0 0 0 0 0 0 0 0 0 TTTTTTTTTTTTTF3 84
 23 12 din_912-m1_4x0_3-12-8_879 13 226 SDL/TYSA_NAME1 0 
